<svg width="262" height="139" viewBox="0 0 262 139" fill="none" xmlns="http://www.w3.org/2000/svg">
<path fill-rule="evenodd" clip-rule="evenodd" d="M108.834 0.167847H11.1754C3.26134 0.167847 0.338135 3.08999 0.338135 11.0061V106.527C0.334427 107.362 0.372986 108.196 0.453679 109.027C0.635611 110.747 0.667581 112.431 2.27547 114.335C2.43282 114.522 4.07511 115.743 4.07511 115.743C4.95773 116.176 5.55026 116.495 6.55581 116.896L54.645 137.049C57.1404 138.192 58.1853 138.639 59.9972 138.602H60.012C61.8239 138.639 62.8688 138.192 65.3667 137.049L113.453 116.896C114.437 116.495 115.051 116.176 115.934 115.743C115.934 115.743 117.576 114.515 117.734 114.335C119.342 112.431 119.376 110.754 119.555 109.027C119.636 108.196 119.675 107.362 119.671 106.527V11.0061C119.671 3.08999 116.75 0.167847 108.834 0.167847Z" fill="black"/>
<path d="M43.4319 89.7021L41.6211 94.2787H45.2182L43.4319 89.7021Z" fill="white"/>
<path d="M54.2107 42.1496V28.8018C54.2107 26.6815 53.224 25.6953 51.1913 25.6953H47.8711V45.256H51.1913C53.2338 45.256 54.2107 44.2699 54.2107 42.1496Z" fill="white"/>
<path d="M108.876 0.167847H11.1919C3.29817 0.167847 0.33804 3.09185 0.33804 11.0157V106.541C0.335133 107.374 0.374652 108.207 0.456444 109.036C0.634052 110.767 0.668588 112.439 2.27693 114.347C2.4348 114.534 4.07767 115.757 4.07767 115.757C4.96078 116.186 5.55774 116.507 6.54445 116.906L54.6466 137.049C57.143 138.192 58.184 138.641 59.9995 138.602C61.8151 138.641 62.8561 138.192 65.3524 137.049L113.455 116.906C114.441 116.507 115.053 116.186 115.921 115.757C115.921 115.757 117.564 114.534 117.722 114.347C119.33 112.439 119.365 110.767 119.543 109.036C119.624 108.207 119.664 107.374 119.661 106.541V11.0059C119.715 3.09185 116.79 0.167847 108.876 0.167847ZM66.1616 18.5649H74.2427V71.6456H66.1616V18.5649ZM66.5612 84.5348H71.2579V100.619H66.8177V91.3838L62.713 97.6805H62.6242L58.5441 91.4282V100.619H54.2273V84.5348H58.924L62.7475 90.7625L66.5612 84.5348ZM40.0186 18.5649H52.7028C59.2743 18.5649 62.5206 21.8242 62.5206 28.4266V42.5338C62.5206 49.1313 59.2743 52.3955 52.7028 52.3955H48.0998V71.6554H40.0186V18.5649ZM18.0002 18.5649H35.9731V25.9069H26.106V40.9214H35.6228V48.2733H26.0764V64.2739H36.1211V71.6308H18.0002V18.5649ZM33.2942 98.4744C32.3816 99.2141 31.3619 99.811 30.2699 100.245C29.0135 100.738 27.6727 100.98 26.3231 100.96C25.1433 100.969 23.9721 100.758 22.8696 100.338C21.8472 99.9467 20.9106 99.3606 20.1117 98.6124C19.3259 97.8697 18.7013 96.9735 18.2764 95.9794C17.8243 94.9234 17.5974 93.7848 17.6104 92.6362V92.5919C17.6024 91.4623 17.8257 90.3431 18.2666 89.303C18.6896 88.3119 19.2992 87.4113 20.0624 86.6502C20.8463 85.8791 21.7775 85.2737 22.8005 84.8701C23.8991 84.4338 25.0719 84.2144 26.254 84.2242C27.5092 84.1954 28.7584 84.4062 29.9344 84.8455C30.9667 85.2617 31.9234 85.8447 32.7663 86.5713L30.1515 89.7172C29.6168 89.2589 29.0186 88.8802 28.3754 88.5929C27.7107 88.3205 26.997 88.1879 26.2787 88.2034C25.7219 88.1972 25.1708 88.3151 24.6654 88.5486C24.1701 88.779 23.727 89.1079 23.3629 89.515C22.9898 89.9244 22.6954 90.3992 22.4946 90.9154C22.2767 91.4644 22.1678 92.0506 22.174 92.6412V92.6856C22.167 93.2987 22.2758 93.9076 22.4946 94.4804C22.6935 95.0085 23.001 95.4889 23.3975 95.8906C23.7917 96.2848 24.2593 96.5981 24.7739 96.8127C25.3296 97.0392 25.9253 97.1516 26.5254 97.1431C27.4276 97.18 28.3205 96.9483 29.0908 96.4774V94.505H25.9284V91.2408H33.3287L33.2942 98.4744ZM41.5332 84.4165H45.8402L52.6683 100.619H47.9025L46.7332 97.7495H40.5416L39.397 100.619H34.72L41.5332 84.4165ZM59.6838 127.419L37.0585 119.638H83.3057L59.6838 127.419ZM87.2821 100.619H74.2477V84.5348H87.1489V88.3267H78.6484V90.7625H86.3497V94.2782H78.6484V96.8275H87.2821V100.619ZM78.5349 62.2424V27.968C78.5349 21.3705 81.7812 18.1063 88.3478 18.1063H92.2946C98.8612 18.1063 102.033 21.2916 102.033 27.8891V38.7272H94.0658V28.3724C94.0658 26.2472 93.079 25.2659 91.0464 25.2659H89.6897C87.5732 25.2659 86.5914 26.2521 86.5914 28.3724V61.9022C86.5914 64.0274 87.5781 65.0136 89.6897 65.0136H91.1994C93.2369 65.0136 94.2187 64.0274 94.2187 61.9022V49.9202H102.147V62.2819C102.147 68.8794 98.9006 72.1436 92.3291 72.1436H88.328C81.7615 72.0992 78.5152 68.8399 78.5152 62.2424H78.5349ZM102.473 95.6737C102.48 96.4365 102.311 97.1908 101.979 97.8778C101.671 98.5181 101.22 99.0797 100.662 99.5197C100.057 99.9948 99.3648 100.347 98.6244 100.555C97.7598 100.801 96.8641 100.921 95.9652 100.91C94.5743 100.917 93.192 100.692 91.8752 100.245C90.6125 99.8246 89.4479 99.1537 88.4514 98.2722L90.9181 95.3137C92.3735 96.5467 94.2153 97.2306 96.123 97.2466C96.5942 97.2728 97.0639 97.1741 97.4847 96.9606C97.63 96.8798 97.7505 96.7608 97.8331 96.6166C97.9157 96.4723 97.9573 96.3083 97.9534 96.1421V96.0977C97.9582 95.9405 97.9189 95.7851 97.8399 95.649C97.7308 95.4905 97.5853 95.3603 97.4156 95.2693C97.1545 95.1218 96.8783 95.0027 96.5917 94.9143C96.1512 94.7705 95.7032 94.6503 95.2498 94.5544C94.3979 94.3571 93.6036 94.1402 92.8669 93.9035C92.1875 93.6905 91.5426 93.3799 90.9527 92.9814C90.4236 92.6188 89.9847 92.1398 89.6699 91.581C89.3391 90.9386 89.1778 90.2224 89.2013 89.5002V89.4558C89.1945 88.7433 89.3391 88.0374 89.6255 87.3849C89.9109 86.7551 90.3341 86.1973 90.8639 85.7528C91.4461 85.2728 92.1164 84.9111 92.8373 84.6877C93.6745 84.4221 94.5492 84.2938 95.4274 84.308C96.6735 84.2881 97.9147 84.4696 99.1029 84.8455C100.165 85.1972 101.155 85.7385 102.024 86.4431L99.8035 89.5939C99.1112 89.0928 98.3502 88.6942 97.5439 88.4105C96.8274 88.1496 96.0716 88.0128 95.309 88.0062C94.8875 87.9755 94.4672 88.081 94.1101 88.307C93.9879 88.3833 93.8863 88.4884 93.8141 88.613C93.7418 88.7376 93.7012 88.878 93.6957 89.0219V89.0663C93.691 89.2395 93.7355 89.4104 93.824 89.5594C93.9331 89.7217 94.0827 89.8526 94.2582 89.9391C94.5294 90.0809 94.8135 90.1965 95.1067 90.2842C95.4652 90.3993 95.9191 90.5176 96.4684 90.6393C97.3046 90.8203 98.1285 91.0541 98.9352 91.3394C99.6092 91.5791 100.247 91.911 100.83 92.3256C101.33 92.6896 101.737 93.1659 102.019 93.7161C102.308 94.322 102.45 94.9877 102.433 95.6589L102.473 95.6737Z" fill="white"/>
<path d="M158.58 100.167H175.434C186.321 100.167 191.451 94.9324 191.451 84.1499V42.9044C191.451 32.1219 186.321 26.8877 175.434 26.8877H158.58V100.167ZM169.781 36.728H173.864C178.261 36.728 180.25 38.8217 180.25 43.2184V83.8359C180.25 88.2326 178.261 90.3263 173.864 90.3263H169.781V36.728Z" fill="white"/>
<path d="M197.939 26.8877V100.167H223.063V90.0122H209.14V67.9239H222.33V57.7695H209.14V37.0421H222.854V26.8877H197.939Z" fill="white"/>
<path d="M251.113 100.271L262 26.8877H251.322L244.518 81.5328L237.922 26.8877H226.617L237.399 100.271H251.113Z" fill="white"/>
</svg>
